# xmcd
#
# Track frame offsets:
# 150
# 12697
# 23342
# 36107
# 47862
# 58970
# 70452
# 82740
# 94430
# 108075
# 119475
# 132387
# 144977
# 159247
# 171625
# 184677
# 198477
# 209947
# 221780
# 237055
#
# Disc length: 3318 seconds
#
# Revision: 0
# Processed by: cddbd v1.5.1PL0 Copyright (c) Steve Scherf et al.
# Submitted via: Audion 3.0.2 (http://www.panic.com/audion/)
#
DISCID=2d0cf414
DTITLE=Various Artist - Country and Western Part 2
DYEAR=1900
DGENRE=
TTITLE0=Cold, Cold Heart/Hank Williams
TTITLE1=Act Naturally/Buck Owens
TTITLE2=Wabash Cannonball/Roy Acuff
TTITLE3=I Really Don't Want to Know/Eddy Arnold
TTITLE4=Singing the Blues/Marty Robbins
TTITLE5=The Battle of New Orleans/Johnny Horton
TTITLE6=Release Me/Ray Price
TTITLE7=Send Me the Pillow You Dream On/Hank Locklin
TTITLE8=Molly Darling/Eddy Arnold
TTITLE9=The River of No Return/Tennessee Ernie Ford
TTITLE10=North to Alaska/Johnny Horton
TTITLE11=Steel Guitar Rag/Bob Wills
TTITLE12=Crying in the Chapel/Rex Allen
TTITLE13=Half as Much/Hank Williams
TTITLE14=Anytime/Eddy Arnold
TTITLE15=Goodnight Irene/Red Foley and Ernest Tubb
TTITLE16=A White Sport Coat/Marty Robbins
TTITLE17=Mansion on the Hill/Hank Williams
TTITLE18=Blue Yodel No. 1/Jimmie Rodgers
TTITLE19=I Can't Stop Loving You/Don Gibson
EXTD=
EXTT0=
EXTT1=
EXTT2=
EXTT3=
EXTT4=
EXTT5=
EXTT6=
EXTT7=
EXTT8=
EXTT9=
EXTT10=
EXTT11=
EXTT12=
EXTT13=
EXTT14=
EXTT15=
EXTT16=
EXTT17=
EXTT18=
EXTT19=
PLAYORDER=
